
<svg width="17" height="18" viewBox="0 0 17 18" fill="none" xmlns="http://www.w3.org/2000/svg">
<path d="M16 7.5C16.5523 7.5 17 7.94772 17 8.5V9.5C17 10.0523 16.5523 10.5 16 10.5L1 10.5C0.447715 10.5 1.4465e-08 10.0523 3.23084e-08 9.5L6.46168e-08 8.5C8.24603e-08 7.94771 0.447715 7.5 1 7.5L16 7.5Z" fill="white"/>
<path d="M10 16.5C10 17.0523 9.55228 17.5 9 17.5L8 17.5C7.44771 17.5 7 17.0523 7 16.5L7 1.5C7 0.947715 7.44772 0.5 8 0.5L9 0.5C9.55229 0.5 10 0.947715 10 1.5L10 16.5Z" fill="white"/>
</svg>

