
<svg width="262" height="194" viewBox="0 0 262 194" fill="none" xmlns="http://www.w3.org/2000/svg">
<circle cx="131.444" cy="101.5" r="92.5" fill="#DEDEDE" fill-opacity="0.49"/>
<rect x="46.9437" y="47" width="171" height="124" rx="6" fill="#EBEBEF" stroke="#DEDEDE" stroke-width="4"/>
<mask id="path-3-inside-1" fill="white">
<path fill-rule="evenodd" clip-rule="evenodd" d="M52.9437 45C48.5254 45 44.9437 48.5817 44.9437 53V69H219.944V53C219.944 48.5817 216.362 45 211.944 45H52.9437ZM56.9437 54C55.2868 54 53.9437 55.3431 53.9437 57C53.9437 58.6569 55.2868 60 56.9437 60C58.6005 60 59.9437 58.6569 59.9437 57C59.9437 55.3431 58.6005 54 56.9437 54ZM62.9437 57C62.9437 55.3431 64.2868 54 65.9437 54C67.6005 54 68.9437 55.3431 68.9437 57C68.9437 58.6569 67.6005 60 65.9437 60C64.2868 60 62.9437 58.6569 62.9437 57ZM74.9437 54C73.2868 54 71.9437 55.3431 71.9437 57C71.9437 58.6569 73.2868 60 74.9437 60C76.6005 60 77.9437 58.6569 77.9437 57C77.9437 55.3431 76.6005 54 74.9437 54Z"/>
</mask>
<path fill-rule="evenodd" clip-rule="evenodd" d="M52.9437 45C48.5254 45 44.9437 48.5817 44.9437 53V69H219.944V53C219.944 48.5817 216.362 45 211.944 45H52.9437ZM56.9437 54C55.2868 54 53.9437 55.3431 53.9437 57C53.9437 58.6569 55.2868 60 56.9437 60C58.6005 60 59.9437 58.6569 59.9437 57C59.9437 55.3431 58.6005 54 56.9437 54ZM62.9437 57C62.9437 55.3431 64.2868 54 65.9437 54C67.6005 54 68.9437 55.3431 68.9437 57C68.9437 58.6569 67.6005 60 65.9437 60C64.2868 60 62.9437 58.6569 62.9437 57ZM74.9437 54C73.2868 54 71.9437 55.3431 71.9437 57C71.9437 58.6569 73.2868 60 74.9437 60C76.6005 60 77.9437 58.6569 77.9437 57C77.9437 55.3431 76.6005 54 74.9437 54Z" fill="#DEDEDE"/>
<path d="M44.9437 69H40.9437V73H44.9437V69ZM219.944 69V73H223.944V69H219.944ZM48.9437 53C48.9437 50.7909 50.7345 49 52.9437 49V41C46.3162 41 40.9437 46.3726 40.9437 53H48.9437ZM48.9437 69V53H40.9437V69H48.9437ZM219.944 65H44.9437V73H219.944V65ZM215.944 53V69H223.944V53H215.944ZM211.944 49C214.153 49 215.944 50.7909 215.944 53H223.944C223.944 46.3726 218.571 41 211.944 41V49ZM52.9437 49H211.944V41H52.9437V49ZM57.9437 57C57.9437 57.5523 57.4959 58 56.9437 58V50C53.0777 50 49.9437 53.134 49.9437 57H57.9437ZM56.9437 56C57.4959 56 57.9437 56.4477 57.9437 57H49.9437C49.9437 60.866 53.0777 64 56.9437 64V56ZM55.9437 57C55.9437 56.4477 56.3914 56 56.9437 56V64C60.8097 64 63.9437 60.866 63.9437 57H55.9437ZM56.9437 58C56.3914 58 55.9437 57.5523 55.9437 57H63.9437C63.9437 53.134 60.8097 50 56.9437 50V58ZM65.9437 50C62.0777 50 58.9437 53.134 58.9437 57H66.9437C66.9437 57.5523 66.4959 58 65.9437 58V50ZM72.9437 57C72.9437 53.134 69.8097 50 65.9437 50V58C65.3914 58 64.9437 57.5523 64.9437 57H72.9437ZM65.9437 64C69.8097 64 72.9437 60.866 72.9437 57H64.9437C64.9437 56.4477 65.3914 56 65.9437 56V64ZM58.9437 57C58.9437 60.866 62.0777 64 65.9437 64V56C66.4959 56 66.9437 56.4477 66.9437 57H58.9437ZM75.9437 57C75.9437 57.5523 75.4959 58 74.9437 58V50C71.0777 50 67.9437 53.134 67.9437 57H75.9437ZM74.9437 56C75.4959 56 75.9437 56.4477 75.9437 57H67.9437C67.9437 60.866 71.0777 64 74.9437 64V56ZM73.9437 57C73.9437 56.4477 74.3914 56 74.9437 56V64C78.8097 64 81.9437 60.866 81.9437 57H73.9437ZM74.9437 58C74.3914 58 73.9437 57.5523 73.9437 57H81.9437C81.9437 53.134 78.8097 50 74.9437 50V58Z" fill="#DEDEDE" mask="url(#path-3-inside-1)"/>
<path d="M123.944 132C123.944 130.895 124.839 130 125.944 130H138.944C140.048 130 140.944 130.895 140.944 132C140.944 133.105 140.048 134 138.944 134H125.944C124.839 134 123.944 133.105 123.944 132Z" fill="#DEDEDE" stroke="#DEDEDE" stroke-width="4"/>
<path d="M108.944 99C108.944 97.8954 109.839 97 110.944 97C112.048 97 112.944 97.8954 112.944 99C112.944 100.105 112.048 101 110.944 101C109.839 101 108.944 100.105 108.944 99Z" fill="#DEDEDE" stroke="#DEDEDE" stroke-width="4"/>
<path d="M152.944 99C152.944 97.8954 153.839 97 154.944 97C156.048 97 156.944 97.8954 156.944 99C156.944 100.105 156.048 101 154.944 101C153.839 101 152.944 100.105 152.944 99Z" fill="#DEDEDE" stroke="#DEDEDE" stroke-width="4"/>
<path d="M66.4437 16L66.4437 3" stroke="#DEDEDE" stroke-width="3" stroke-linecap="round"/>
<path d="M59.9437 9.5L72.9437 9.5" stroke="#DEDEDE" stroke-width="3" stroke-linecap="round"/>
<path d="M242.444 165L242.444 152" stroke="#DEDEDE" stroke-width="3" stroke-linecap="round"/>
<path d="M235.944 158.5L248.944 158.5" stroke="#DEDEDE" stroke-width="3" stroke-linecap="round"/>
<path d="M8.44366 91L8.44367 78" stroke="#DEDEDE" stroke-width="3" stroke-linecap="round"/>
<path d="M1.94366 84.5L14.9437 84.5" stroke="#DEDEDE" stroke-width="3" stroke-linecap="round"/>
<line x1="212.944" y1="29.6956" x2="212.944" y2="2.99999" stroke="#DEDEDE" stroke-width="6" stroke-linecap="round"/>
<line x1="229.944" y1="33.7574" x2="247.701" y2="16" stroke="#DEDEDE" stroke-width="6" stroke-linecap="round"/>
<line x1="232.944" y1="50" x2="258.056" y2="50" stroke="#DEDEDE" stroke-width="6" stroke-linecap="round"/>
</svg>

