
<svg width="647" height="617" viewBox="0 0 647 617" fill="none" xmlns="http://www.w3.org/2000/svg">
<g opacity="0.9" clip-path="url(#clip0)">
<path d="M335.15 580.388L305.361 597.683L334.728 590.596C334.502 593.02 334.194 595.403 333.784 597.734C333.67 598.381 333.547 599.018 333.413 599.655C332.41 605.008 330.591 610.176 328.021 614.978C327.528 615.861 327.035 616.724 326.521 617.556C326.028 618.398 325.514 619.209 324.991 620H246.031C245.373 619.209 244.747 618.388 244.172 617.556C238.542 609.632 236.261 599.81 237.824 590.216C238.111 588.265 238.523 586.333 239.056 584.434C239.574 582.493 240.202 580.584 240.936 578.714C242.219 575.411 243.733 572.202 245.466 569.111C249.082 562.6 254.721 556.725 261.367 551.508C264.585 548.997 267.938 546.666 271.413 544.524C272.07 544.103 272.738 543.693 273.416 543.292C274.453 542.676 275.491 542.07 276.539 541.484C278.624 540.293 280.729 539.163 282.835 538.095C283.39 537.808 283.934 537.53 284.479 537.263C289.049 534.983 293.6 532.94 297.934 531.142C298.479 530.917 299.034 530.691 299.578 530.475C308.201 526.948 317.022 523.927 325.997 521.427C325.997 521.427 326.028 521.509 326.08 521.684C326.213 522.156 326.552 523.296 327.014 524.98C328.298 529.653 330.558 538.568 332.376 549.331C332.479 549.916 332.571 550.512 332.674 551.108C334.193 560.211 335.034 569.414 335.19 578.642C335.201 579.217 335.201 579.782 335.201 580.357L335.15 580.388Z" fill="#F2F2F2"/>
<path d="M328.175 520.379C328.165 520.41 328.062 520.913 327.826 521.838C327.63 522.608 327.364 523.666 327.014 524.98C325.812 529.571 323.676 537.263 320.635 546.527C320.461 547.061 320.276 547.616 320.091 548.17C317.975 554.507 315.458 561.511 312.552 568.711C311.822 570.518 311.093 572.295 310.343 574.031C310.117 574.575 309.891 575.109 309.655 575.633C306.47 583.007 303.194 589.754 299.825 595.875L298.972 597.406C295.056 604.507 290.523 611.25 285.424 617.556C284.736 618.398 284.037 619.209 283.328 620H280.945C281.664 619.209 282.383 618.388 283.081 617.556C288.473 611.031 293.243 604.017 297.329 596.605C297.616 596.101 297.904 595.598 298.181 595.085C301.807 588.501 305.105 581.62 308.052 574.801C308.289 574.277 308.515 573.743 308.74 573.199C312.592 564.182 315.828 555.318 318.437 547.513C318.622 546.959 318.807 546.404 318.982 545.86C322.783 534.337 325.165 525.299 326.08 521.684C326.203 521.15 326.305 520.729 326.378 520.441C326.449 520.174 326.48 520.02 326.491 519.989L327.323 520.184H327.333L328.175 520.379Z" fill="white"/>
<path d="M333.948 549.464C333.424 549.434 332.9 549.382 332.376 549.331C328.357 548.913 324.41 547.971 320.635 546.527C320.091 546.311 319.536 546.096 318.982 545.86C317.48 545.214 316.012 544.491 314.585 543.693C308.683 540.427 303.563 535.917 299.578 530.475C299.445 530.3 299.311 530.115 299.188 529.941C298.654 530.167 298.109 530.393 297.555 530.619C297.678 530.793 297.801 530.968 297.934 531.142C302.092 536.949 307.493 541.756 313.743 545.213C315.266 546.061 316.833 546.829 318.437 547.513C318.982 547.739 319.536 547.965 320.091 548.17C324.135 549.71 328.367 550.698 332.674 551.108C333.188 551.159 333.711 551.2 334.225 551.231C334.133 550.625 334.04 550.04 333.948 549.464Z" fill="white"/>
<path d="M335.19 578.642C326.641 579.422 318.043 577.827 310.343 574.031C309.799 573.774 309.265 573.497 308.74 573.199C308.574 573.123 308.413 573.038 308.258 572.942C301.738 569.319 296.179 564.191 292.043 557.985C287.907 551.779 285.313 544.674 284.479 537.263C284.458 537.089 284.438 536.904 284.417 536.729C283.862 537.017 283.308 537.294 282.763 537.582C282.783 537.756 282.804 537.921 282.835 538.095C283.784 545.662 286.505 552.899 290.776 559.218C295.047 565.537 300.748 570.759 307.416 574.462C307.621 574.575 307.837 574.698 308.052 574.801C308.586 575.089 309.121 575.366 309.655 575.633C317.561 579.511 326.377 581.155 335.15 580.388C335.612 580.347 336.074 580.296 336.536 580.244C336.536 579.659 336.547 579.084 336.547 578.498C336.095 578.55 335.642 578.601 335.19 578.642Z" fill="white"/>
<path d="M333.784 597.734C324.536 600.769 314.572 600.844 305.279 597.95C303.419 597.375 301.597 596.682 299.825 595.875C299.27 595.629 298.726 595.362 298.181 595.085C297.596 594.797 297.021 594.489 296.455 594.181C288.773 589.904 282.447 583.555 278.199 575.858C273.951 568.16 271.952 559.424 272.43 550.646C272.555 548.171 272.885 545.712 273.416 543.292C273.447 543.128 273.478 542.963 273.519 542.799C272.841 543.22 272.163 543.641 271.495 544.073C271.465 544.227 271.433 544.37 271.413 544.525C270.811 547.84 270.56 551.211 270.663 554.579C270.89 563.007 273.309 571.231 277.683 578.44C282.056 585.649 288.232 591.595 295.603 595.691C296.178 596.009 296.753 596.317 297.329 596.605C297.873 596.882 298.428 597.149 298.972 597.406C309.787 602.356 322.046 603.157 333.414 599.655C333.794 599.552 334.174 599.429 334.554 599.306C334.708 598.648 334.841 597.991 334.965 597.334C334.575 597.478 334.184 597.611 333.784 597.734Z" fill="white"/>
<path d="M263.216 253.18H205.694V310.693H263.216V253.18Z" fill="#9E616A"/>
<path d="M169.82 596.917L181.154 596.916L186.545 553.209L169.818 553.21L169.82 596.917Z" fill="#9E616A"/>
<path d="M200.927 609.689L183.897 597.929V590.258L181.966 590.371L169.824 591.1L165.983 591.326L163.795 617.556L163.723 618.429H171.766L171.93 617.556L173.204 610.839L176.46 617.556L176.881 618.429H198.205C199.475 618.426 200.692 617.921 201.591 617.025C202.49 616.128 202.997 614.912 203.002 613.643C203.003 612.865 202.814 612.098 202.453 611.41C202.092 610.721 201.568 610.13 200.927 609.689V609.689Z" fill="#2F2E41"/>
<path d="M236.101 589.722L246.994 592.854L264.258 552.34L248.183 547.718L236.101 589.722Z" fill="#9E616A"/>
<path d="M262.466 610.603L249.349 594.592L251.475 587.218L249.585 586.797L239.057 584.434L237.711 584.137L233.962 583.294L224.296 608.713L232.02 610.942L235.502 604.04L236.93 612.349L241.799 613.746L255.04 617.556L257.433 618.244C258.415 618.529 259.463 618.492 260.423 618.138C261.383 617.784 262.204 617.133 262.767 616.278C263.329 615.424 263.604 614.413 263.55 613.391C263.495 612.37 263.116 611.393 262.466 610.603V610.603Z" fill="#2F2E41"/>
<path d="M969.641 0H369.293C368.401 0.0027184 367.547 0.358825 366.917 0.990269C366.288 1.62171 365.934 2.47698 365.934 3.36862V23.1387C365.934 24.0303 366.288 24.8856 366.917 25.5171C367.547 26.1485 368.401 26.5046 369.293 26.5073H969.641C970.533 26.5047 971.387 26.1486 972.017 25.5172C972.647 24.8857 973 24.0304 973 23.1387V3.36862C973 2.47695 972.647 1.62164 972.017 0.990175C971.387 0.358711 970.533 0.00262633 969.641 0Z" fill="#E4E4E4"/>
<path d="M385.449 17.0615C388.086 17.0615 390.224 14.9244 390.224 12.2881C390.224 9.65179 388.086 7.51466 385.449 7.51466C382.813 7.51466 380.675 9.65179 380.675 12.2881C380.675 14.9244 382.813 17.0615 385.449 17.0615Z" fill="white"/>
<path d="M403.571 17.0615C406.207 17.0615 408.345 14.9244 408.345 12.2881C408.345 9.65179 406.207 7.51466 403.571 7.51466C400.934 7.51466 398.797 9.65179 398.797 12.2881C398.797 14.9244 400.934 17.0615 403.571 17.0615Z" fill="white"/>
<path d="M421.693 17.0615C424.329 17.0615 426.467 14.9244 426.467 12.2881C426.467 9.65179 424.329 7.51466 421.693 7.51466C419.056 7.51466 416.919 9.65179 416.919 12.2881C416.919 14.9244 419.056 17.0615 421.693 17.0615Z" fill="white"/>
<path d="M745.099 83.6916H589.552C588.469 83.6944 587.431 84.1259 586.665 84.8919C585.899 85.6578 585.467 86.6959 585.464 87.7792V150.889C585.467 151.973 585.899 153.011 586.665 153.777C587.431 154.543 588.469 154.974 589.552 154.977H745.099C746.182 154.976 747.222 154.545 747.988 153.779C748.755 153.012 749.186 151.973 749.187 150.889V87.7792C749.186 86.6954 748.755 85.6563 747.988 84.89C747.222 84.1237 746.182 83.6927 745.099 83.6916Z" fill="#E4E4E4"/>
<path d="M730.287 175.435H604.364C603.064 175.435 601.816 175.952 600.896 176.871C599.976 177.791 599.46 179.038 599.46 180.339C599.46 181.64 599.976 182.887 600.896 183.807C601.816 184.726 603.064 185.243 604.364 185.243H730.287C736.676 185.336 736.614 175.343 730.287 175.435Z" fill="#E4E4E4"/>
<path d="M730.287 197.916H604.364C603.064 197.916 601.816 198.433 600.896 199.353C599.976 200.273 599.46 201.52 599.46 202.821C599.46 204.121 599.976 205.368 600.896 206.288C601.816 207.208 603.064 207.725 604.364 207.725H730.287C736.676 207.817 736.614 197.824 730.287 197.916Z" fill="#E4E4E4"/>
<path d="M730.287 220.398H604.364C603.064 220.398 601.816 220.915 600.896 221.834C599.976 222.754 599.46 224.001 599.46 225.302C599.46 226.603 599.976 227.85 600.896 228.77C601.816 229.689 603.064 230.206 604.364 230.206H730.287C736.676 230.298 736.614 220.305 730.287 220.398Z" fill="#E4E4E4"/>
<path d="M355.065 203.049C354.866 203.633 354.721 204.233 354.63 204.843L290.94 193.588L236.081 164.01C232.63 162.149 228.601 161.666 224.808 162.658C221.015 163.65 217.739 166.044 215.641 169.356C213.544 172.668 212.78 176.652 213.505 180.504C214.23 184.357 216.389 187.791 219.546 190.115H219.547C229.779 197.646 241.124 203.535 253.172 207.57L292.945 220.89L362.609 216.425C364.544 216.842 366.558 216.692 368.409 215.991C370.26 215.291 371.869 214.071 373.043 212.478C374.217 210.885 374.905 208.987 375.025 207.011C375.145 205.036 374.692 203.069 373.719 201.345C372.747 199.622 371.298 198.216 369.545 197.296C367.793 196.377 365.812 195.984 363.841 196.164C361.87 196.344 359.993 197.09 358.436 198.311C356.879 199.532 355.708 201.178 355.065 203.049V203.049Z" fill="#9E616A"/>
<path d="M511.723 203.247H313.456C312.072 203.249 310.746 203.799 309.768 204.777C308.79 205.755 308.239 207.081 308.237 208.464V288.89C308.239 290.273 308.79 291.599 309.768 292.577C310.746 293.555 312.072 294.105 313.456 294.107H511.723C513.104 294.103 514.428 293.551 515.404 292.574C516.38 291.596 516.929 290.271 516.93 288.89V208.464C516.929 207.082 516.38 205.758 515.404 204.78C514.428 203.802 513.104 203.251 511.723 203.247V203.247Z" fill="#6C63FF"/>
<path d="M492.843 320.183H332.335C330.676 320.183 329.085 320.842 327.912 322.015C326.739 323.188 326.08 324.779 326.08 326.437C326.08 328.096 326.739 329.687 327.912 330.86C329.085 332.033 330.676 332.692 332.335 332.692H492.843C500.988 332.805 500.906 320.07 492.843 320.183Z" fill="#6C63FF"/>
<path d="M492.843 348.837H332.335C330.676 348.837 329.085 349.496 327.912 350.669C326.739 351.842 326.08 353.432 326.08 355.091C326.08 356.75 326.739 358.341 327.912 359.514C329.085 360.687 330.676 361.346 332.335 361.346H492.843C500.988 361.459 500.906 348.724 492.843 348.837Z" fill="#6C63FF"/>
<path d="M492.843 377.501H332.335C331.514 377.501 330.702 377.662 329.943 377.976C329.185 378.29 328.496 378.751 327.915 379.331C327.335 379.911 326.875 380.6 326.561 381.359C326.246 382.117 326.085 382.929 326.085 383.75C326.085 384.571 326.246 385.383 326.561 386.142C326.875 386.9 327.335 387.589 327.915 388.169C328.496 388.749 329.185 389.21 329.943 389.524C330.702 389.838 331.514 390 332.335 390H492.843C500.988 390.112 500.906 377.388 492.843 377.501Z" fill="#6C63FF"/>
<path d="M264.361 135.461C272.45 120.665 267.012 102.114 252.213 94.0255C237.415 85.9374 218.861 91.3751 210.771 106.171C202.682 120.967 208.12 139.518 222.919 147.606C237.717 155.694 256.271 150.257 264.361 135.461Z" fill="#9E616A"/>
<path d="M242.672 83.7224H222.946C210.014 83.7224 199.53 95.5146 199.53 110.061C189.772 119.858 192.701 132.131 200.443 145.343C214.417 147.081 228.084 150.736 241.059 156.205L242.9 148.344L246.532 158.697C249.762 160.262 252.965 161.973 256.14 163.83C252.434 146.421 250.909 129.052 253.453 115.56H260.134V108.25L262.402 115.56H274.515C274.515 111.379 273.691 107.239 272.091 103.376C270.491 99.5135 268.145 96.0038 265.188 93.0474C262.232 90.091 258.721 87.7459 254.858 86.1459C250.995 84.5459 246.854 83.7224 242.672 83.7224Z" fill="#2F2E41"/>
<path d="M240.618 159.722L203.685 158.121L202.692 161.894C194.521 192.932 193.259 225.385 198.995 256.964V256.964C200.092 257.997 200.893 259.303 201.316 260.749C201.74 262.194 201.77 263.726 201.403 265.187L200.873 267.302L200.922 267.379C202.663 270.127 203.254 273.448 202.567 276.628V276.628L204.414 286.797L264.243 260.369L277.596 214.154L240.618 159.722Z" fill="#CACACA"/>
<path d="M332.147 257.128C331.732 257.585 331.359 258.078 331.033 258.601L277.102 222.905L238.572 173.922C236.149 170.84 232.646 168.793 228.772 168.191C224.898 167.59 220.939 168.48 217.695 170.682C214.452 172.884 212.164 176.234 211.293 180.057C210.423 183.879 211.034 187.889 213.004 191.278V191.278C219.389 202.262 227.448 212.183 236.89 220.683L268.061 248.744L333.736 272.402C335.344 273.556 337.251 274.22 339.228 274.315C341.205 274.41 343.167 273.932 344.878 272.938C346.59 271.945 347.978 270.478 348.875 268.714C349.772 266.951 350.14 264.965 349.936 262.997C349.731 261.029 348.962 259.162 347.72 257.621C346.479 256.079 344.819 254.93 342.94 254.31C341.06 253.689 339.042 253.626 337.127 254.126C335.212 254.626 333.483 255.668 332.147 257.128L332.147 257.128Z" fill="#9E616A"/>
<path d="M449.427 154.735C443.589 154.735 437.883 153.005 433.029 149.762C428.175 146.519 424.392 141.91 422.158 136.517C419.924 131.125 419.339 125.191 420.478 119.466C421.617 113.741 424.428 108.483 428.556 104.356C432.684 100.228 437.943 97.4177 443.669 96.279C449.395 95.1402 455.329 95.7247 460.723 97.9583C466.116 100.192 470.726 103.975 473.969 108.828C477.213 113.681 478.944 119.387 478.944 125.224C478.944 133.051 475.834 140.557 470.299 146.092C464.763 151.626 457.256 154.735 449.427 154.735Z" fill="#E4E4E4"/>
<path d="M461.074 122.313H452.339V113.579C452.339 112.807 452.032 112.067 451.486 111.521C450.94 110.975 450.2 110.668 449.427 110.668C448.655 110.668 447.915 110.975 447.369 111.521C446.823 112.067 446.516 112.807 446.516 113.579V122.313H437.781C437.01 122.314 436.27 122.621 435.726 123.167C435.181 123.713 434.875 124.453 434.875 125.224C434.875 125.995 435.181 126.735 435.726 127.28C436.27 127.826 437.01 128.133 437.781 128.135H446.516V136.868C446.516 137.64 446.823 138.381 447.369 138.927C447.915 139.473 448.655 139.78 449.427 139.78C450.2 139.78 450.94 139.473 451.486 138.927C452.032 138.381 452.339 137.64 452.339 136.868V128.135H461.074C461.457 128.136 461.836 128.061 462.19 127.915C462.544 127.769 462.865 127.555 463.136 127.284C463.407 127.014 463.622 126.693 463.769 126.339C463.915 125.986 463.991 125.607 463.991 125.224C463.991 124.841 463.915 124.462 463.769 124.108C463.622 123.755 463.407 123.434 463.136 123.163C462.865 122.893 462.544 122.679 462.19 122.533C461.836 122.387 461.457 122.312 461.074 122.313V122.313Z" fill="white"/>
<path d="M302.238 484.196C303.197 481.667 303.551 478.948 303.271 476.257C302.991 473.567 302.085 470.979 300.625 468.701L274.515 333.288L264.243 281.937H202.612C202.612 281.937 164.093 324.558 172.31 378.99L170.01 455.647C167.828 460.905 167.29 466.7 168.466 472.27L169.381 476.606L169.028 477.259C167.346 480.37 166.443 483.842 166.395 487.378C166.347 490.915 167.156 494.41 168.752 497.565L166.147 584.393L184.636 583.366L211.857 482.205L229.832 391.314L260.134 461.665L261.161 478.097L260.663 492.581L237.023 577.204L257.053 584.907L302.238 484.196Z" fill="#2F2E41"/>
</g>
<defs>
<clipPath id="clip0">
<rect width="973" height="620" fill="white"/>
</clipPath>
</defs>
</svg>

